<?xml version="1.0" encoding="utf-8"?>
<!-- Generator: Adobe Illustrator 18.1.0, SVG Export Plug-In . SVG Version: 6.00 Build 0)  -->
<svg version="1.1" id="SpareBank_1" xmlns="http://www.w3.org/2000/svg" xmlns:xlink="http://www.w3.org/1999/xlink" x="0px"
	 y="0px" viewBox="-293.4 361.8 77.1 78.2" enable-background="new -293.4 361.8 77.1 78.2" xml:space="preserve">
<g>
	<g>
		<g>
			<path fill="#E60000" d="M-255.5,373.2c-2.9,0-5.8,0.5-8.4,1.3c11.2-2.4,22.2,2.2,26.2,11.6c4.6,10.9-2,24.1-14.7,29.5
				c-11.4,4.8-23.9,1.7-29.7-6.8c3.4,11.5,14,19.9,26.6,19.9c15.3,0,27.8-12.4,27.8-27.8S-240.1,373.2-255.5,373.2z"/>
			<path fill="#AF0000" d="M-252.4,415.5c12.7-5.4,19.3-18.6,14.7-29.5c-4-9.4-15.1-14-26.2-11.6c-11.2,3.6-19.3,14.1-19.3,26.5
				c0,2.7,0.4,5.3,1.1,7.8C-276.3,417.3-263.8,420.4-252.4,415.5z"/>
			<g>
				<path fill="#FFFFFF" d="M-248.3,413.5V385c0-0.6-0.5-1-1-1h-6.5c-0.5,0-0.7,0.1-1.1,0.3l-8.3,4.3c-0.5,0.2-0.7,0.5-0.7,1v4.7
					c0,0.5,0.4,1,1,1h5.3v22.4c2.4-0.3,4.9-1,7.3-2C-251,414.9-249.6,414.2-248.3,413.5z"/>
				<path fill="none" d="M-258.7,422.1h9.3c0.6,0,1-0.5,1-1v-7.6c-1.3,0.8-2.6,1.5-4,2.1c-2.4,1-4.9,1.7-7.3,2v3.5
					C-259.7,421.7-259.2,422.1-258.7,422.1z"/>
			</g>
		</g>
	</g>
</g>
</svg>
